<?xml version="1.0" standalone="no"?>
<!DOCTYPE svg PUBLIC "-//W3C//DTD SVG 20010904//EN"
 "http://www.w3.org/TR/2001/REC-SVG-20010904/DTD/svg10.dtd">
<svg version="1.0" xmlns="http://www.w3.org/2000/svg"
 width="700.000000pt" height="700.000000pt" viewBox="0 0 700.000000 700.000000"
 preserveAspectRatio="xMidYMid meet">
<metadata>
Created by potrace 1.11, written by Peter Selinger 2001-2013
</metadata>
<g transform="translate(0.000000,700.000000) scale(0.100000,-0.100000)"
fill="#000000" stroke="none">
<path d="M3415 6340 c-22 -5 -56 -12 -75 -15 -19 -3 -43 -8 -52 -11 -10 -3
-30 -7 -45 -10 -16 -3 -98 -18 -183 -35 -85 -17 -166 -33 -180 -35 -14 -2 -36
-7 -50 -9 -14 -3 -36 -7 -50 -10 -14 -3 -47 -9 -75 -15 -27 -5 -66 -12 -85
-15 -19 -3 -53 -10 -75 -15 -43 -10 -277 -55 -335 -65 -19 -3 -42 -8 -50 -10
-8 -2 -31 -6 -50 -9 -19 -3 -60 -10 -90 -16 -30 -6 -66 -13 -80 -16 -14 -2
-47 -9 -75 -14 -27 -5 -61 -11 -75 -14 -87 -14 -194 -37 -199 -41 -3 -3 2 -13
11 -21 18 -19 201 -69 973 -269 143 -36 285 -73 315 -81 213 -57 535 -135 585
-142 136 -18 181 -10 640 108 589 152 985 255 1145 297 96 25 203 52 238 60
34 8 62 18 62 23 0 15 -103 45 -220 65 -19 3 -127 24 -240 46 -258 50 -223 43
-460 88 -91 17 -185 36 -210 41 -25 5 -117 23 -205 40 -88 16 -171 32 -185 35
-14 3 -41 8 -60 11 -19 4 -44 8 -55 11 -11 2 -54 10 -95 18 -41 8 -88 17 -105
20 -55 11 -269 14 -310 5z"/>
<path d="M5083 5772 c-18 -28 -19 -55 -22 -304 l-2 -273 -31 -64 c-29 -61 -30
-68 -19 -114 20 -86 13 -171 -25 -326 -36 -145 -45 -213 -30 -228 9 -9 281
-11 290 -2 4 3 -3 46 -15 95 -11 49 -22 96 -24 104 -2 8 -12 53 -23 100 -33
140 -34 155 -11 223 25 72 26 112 5 136 -39 43 -44 96 -45 462 -1 141 -4 190
-15 204 -13 18 -15 18 -33 -13z"/>
<path d="M2534 5628 c-3 -5 -3 -28 0 -51 3 -23 9 -82 12 -132 4 -49 8 -92 9
-95 2 -3 6 -37 10 -75 11 -118 30 -169 83 -224 124 -127 341 -225 637 -287
136 -29 478 -24 600 8 22 5 51 12 65 15 39 8 41 8 110 30 170 55 350 153 433
235 37 37 66 90 72 133 11 69 16 123 21 225 3 63 7 136 8 163 2 30 -1 47 -8
47 -9 -1 -294 -68 -356 -84 -134 -35 -277 -75 -415 -115 -245 -71 -231 -72
-735 68 -223 62 -435 121 -472 131 -43 12 -70 15 -74 8z"/>
<path d="M4430 4920 c-153 -103 -307 -170 -494 -215 -133 -33 -212 -40 -401
-39 -294 2 -517 67 -783 226 -63 37 -120 68 -127 68 -23 0 -38 -91 -41 -245
-3 -161 3 -213 42 -333 85 -260 285 -491 517 -596 89 -41 192 -72 267 -82 99
-13 280 -8 350 9 8 2 33 7 55 12 50 10 151 48 215 80 166 84 326 247 412 420
38 75 74 174 83 226 3 18 8 35 10 39 21 35 21 323 0 400 -1 3 -5 22 -9 43 -5
20 -11 37 -15 37 -3 0 -40 -23 -81 -50z"/>
<path d="M3417 3596 c-49 -24 -71 -58 -73 -114 -2 -56 18 -92 72 -126 49 -31
69 -59 72 -100 4 -53 -30 -159 -94 -297 -38 -82 -64 -151 -65 -175 -4 -71 2
-86 157 -411 57 -122 72 -133 111 -90 17 19 153 287 153 303 0 3 10 26 22 52
17 37 22 65 22 128 0 78 -2 86 -56 195 -69 139 -79 170 -82 256 -4 91 5 114
57 138 91 44 106 155 30 223 -39 34 -34 33 -198 36 -70 1 -97 -3 -128 -18z"/>
<path d="M4322 3379 c-44 -13 -101 -72 -134 -139 -15 -30 -47 -91 -71 -135
-23 -44 -82 -154 -129 -245 -222 -427 -318 -608 -366 -692 -33 -57 -96 -21
-161 91 -21 36 -80 147 -131 246 -432 840 -429 835 -491 859 -156 63 -428 -62
-674 -309 -189 -189 -307 -390 -381 -645 -13 -47 -26 -96 -29 -110 -20 -119
-22 -179 -6 -209 15 -27 32 -30 251 -46 41 -4 95 -8 120 -10 25 -2 99 -6 165
-10 66 -3 136 -8 155 -10 19 -3 114 -7 210 -11 96 -3 204 -8 240 -9 93 -5
1280 -5 1370 0 41 2 143 6 225 9 83 4 182 9 220 12 70 5 103 7 310 19 61 3
121 8 135 10 14 2 63 6 110 10 108 8 134 25 136 84 2 62 -32 258 -56 316 -4
11 -16 43 -25 70 -114 323 -389 636 -695 790 -127 64 -227 86 -298 64z"/>
<path d="M1362 1964 c-207 -54 -327 -279 -326 -614 1 -270 69 -446 208 -545
47 -33 126 -66 176 -73 73 -10 325 -2 410 13 14 2 50 7 80 10 30 3 69 8 85 9
17 2 68 7 115 11 47 3 101 8 120 10 36 4 329 13 630 20 183 4 213 10 269 52
34 27 70 92 71 129 0 20 -24 39 -38 30 -4 -2 -47 -7 -97 -10 -113 -9 -187 -15
-245 -21 -61 -6 -142 -14 -215 -20 -33 -3 -84 -7 -112 -10 -96 -9 -233 -21
-333 -30 -63 -5 -108 -9 -220 -19 -30 -3 -84 -8 -120 -11 -36 -3 -96 -8 -135
-11 -233 -20 -302 -1 -401 105 -81 88 -115 203 -110 366 9 250 122 426 283
438 64 5 100 -6 146 -44 131 -108 152 -315 44 -420 -40 -39 -44 -41 -94 -37
-76 7 -112 53 -138 175 -8 36 -15 66 -17 68 -2 1 -18 5 -35 8 -28 6 -33 3 -37
-16 -23 -109 -28 -144 -31 -229 -6 -152 36 -242 137 -291 51 -24 59 -25 193
-21 77 2 154 6 170 9 17 2 59 7 95 10 36 3 88 7 115 10 28 3 77 7 110 10 33 3
80 7 105 10 25 2 77 7 115 10 39 3 86 7 105 10 37 4 98 10 215 21 176 16 278
25 315 29 19 2 67 7 105 11 178 16 187 26 190 184 5 219 -74 522 -146 557 -13
6 -55 14 -94 18 -38 3 -83 8 -100 10 -16 2 -78 7 -136 10 -59 3 -127 7 -150 9
-24 3 -89 8 -144 11 -55 4 -116 8 -135 10 -19 2 -80 6 -135 9 -55 4 -127 9
-160 12 -33 2 -96 6 -140 9 -44 2 -120 7 -170 10 -203 13 -340 13 -393 -1z"/>
<path d="M5548 1975 c-2 -2 -64 -6 -138 -10 -74 -3 -157 -8 -185 -10 -27 -2
-95 -7 -150 -10 -54 -4 -117 -8 -140 -10 -22 -2 -85 -7 -140 -11 -55 -3 -118
-7 -140 -9 -22 -1 -87 -6 -145 -9 -58 -4 -125 -9 -150 -11 -37 -4 -120 -9
-267 -19 -12 -1 -24 -4 -27 -7 -3 -3 3 -41 14 -83 39 -149 52 -248 55 -449 3
-125 8 -204 15 -212 6 -7 39 -16 73 -20 34 -4 69 -9 77 -10 9 -2 52 -6 95 -10
44 -3 94 -8 110 -10 17 -2 59 -7 95 -10 36 -3 81 -8 100 -10 19 -3 67 -7 105
-10 39 -3 86 -7 105 -10 19 -2 67 -7 105 -10 39 -3 85 -8 102 -10 17 -2 62 -7
100 -10 37 -3 84 -8 103 -10 19 -2 64 -7 100 -10 36 -3 85 -8 110 -10 25 -2
77 -7 115 -11 39 -3 79 -8 90 -10 11 -2 72 -7 135 -10 106 -6 117 -5 141 14
51 41 74 161 74 392 0 176 -6 225 -41 329 -32 95 -62 145 -121 203 -74 73
-126 91 -260 94 -62 1 -113 1 -115 -1z"/>
<path d="M3233 1861 c3 -9 17 -46 31 -83 14 -37 28 -78 31 -90 2 -13 12 -52
20 -88 10 -41 17 -125 20 -226 3 -178 -14 -310 -59 -444 -14 -40 -23 -77 -21
-80 3 -4 160 -8 350 -8 306 0 348 2 365 17 65 55 114 427 87 666 -8 75 -50
242 -72 289 -31 64 -24 63 -408 63 -318 1 -348 -1 -344 -16z"/>
<path d="M4125 972 c-61 -38 -78 -83 -45 -124 25 -32 48 -36 265 -43 355 -11
463 -15 525 -20 36 -3 103 -7 150 -10 47 -3 99 -7 115 -10 17 -2 64 -7 105
-10 41 -4 86 -9 100 -12 14 -2 106 -7 205 -9 159 -3 198 -1 280 20 40 11 115
48 115 58 0 15 -34 24 -130 33 -30 3 -66 8 -80 10 -14 3 -56 7 -95 11 -38 3
-81 7 -95 9 -14 3 -59 7 -101 10 -41 3 -84 7 -95 9 -11 2 -58 7 -105 11 -46 4
-91 9 -100 10 -9 2 -56 6 -105 10 -49 3 -111 8 -138 11 -27 2 -77 6 -111 9
-35 3 -80 8 -101 10 -22 2 -79 7 -129 10 -49 4 -106 8 -125 10 -19 2 -89 7
-155 10 -107 5 -123 4 -150 -13z"/>
<path d="M3271 757 l-43 -9 49 -33 c98 -66 153 -137 199 -256 14 -38 29 -71
34 -74 4 -3 31 37 60 88 67 119 97 157 120 157 10 0 94 -36 186 -80 92 -45
169 -78 172 -75 11 11 -17 117 -49 185 -48 105 -43 103 -394 105 -159 1 -310
-3 -334 -8z"/>
</g>
</svg>
